:SAMPLES-PER-SECOND 30
:FULLY-SPECIFIED
:DEGREES
559
root  -7.60305 39.6849 0.0176062 14.4471 -58.5568 -7.41942
RightUpLeg  -10.55 5.73921 11.1608
RightLeg  6.66024 30.9152 5.40008
RightFoot  -3.5574 0.113567 -1.19282
RightToes  1.74624e-010 -3.18055e-015 -2.98177e-016
Spine  -10.698 -6.1822 -5.96453
Spine1  -11.1756 -6.33876 16.6762
HEad  46.7324 12.9272 1.57731
LeftShoulder1  -3.88251e-019 9.70628e-020 -3.87848e-018
LeftArm  -15.1461 62.1307 43.7575
LeftForeArm  147.98 -37.277 173.175
LeftHand  -4.38925 -9.95835 33.3844
RightShoulder  1.05411 0.828351 11.5157
RightArm  -25.2498 -61.2641 -33.5737
RightForeArm  176.448 43.32 -161.527
RightHand  -4.26495 7.66399 -36.4722
LeftUpLeg  4.42941 20.5844 8.54438
LeftLeg  15.2566 35.311 11.83
LeftFoot  7.492 3.92221 -21.2354
LeftToes  7.37594e-011 2.64622e-011 -6.25182e-011
560
root  -7.6239 39.6884 0.013121 14.5547 -58.573 -7.44549
RightUpLeg  -10.5256 5.75429 11.1783
RightLeg  6.46066 30.9551 5.37984
RightFoot  -3.44593 0.11764 -1.23614
RightToes  1.74624e-010 -3.18055e-015 -2.98177e-016
Spine  -10.6992 -6.04081 -5.51036
Spine1  -11.2268 -6.19282 15.9498
HEad  46.9038 13.1251 1.26635
LeftShoulder1  -3.88251e-019 9.70628e-020 -3.87848e-018
LeftArm  -15.2127 62.1268 43.8056
LeftForeArm  147.681 -37.1862 173.209
LeftHand  -4.37004 -9.7598 33.6674
RightShoulder  1.01698 0.711936 11.3635
RightArm  -24.7518 -61.493 -33.9767
RightForeArm  177.009 43.3604 -161.471
RightHand  -4.24979 7.58818 -36.5472
LeftUpLeg  4.49765 19.9922 8.51227
LeftLeg  15.0821 35.9633 11.5934
LeftFoot  7.54529 3.92834 -21.2124
LeftToes  7.37594e-011 2.64622e-011 -6.25182e-011
561
root  -7.64534 39.6888 -0.00480679 14.7741 -58.6256 -7.51302
RightUpLeg  -10.6221 5.81758 11.2201
RightLeg  6.3242 30.9949 5.37668
RightFoot  -3.34047 0.117751 -1.24001
RightToes  1.74624e-010 -3.18055e-015 -2.98177e-016
Spine  -10.8332 -5.82221 -5.30112
Spine1  -11.2396 -5.97611 15.6053
HEad  46.9943 13.0753 0.873847
LeftShoulder1  -3.88251e-019 9.70628e-020 -3.87848e-018
LeftArm  -16.0333 62.1294 42.7269
LeftForeArm  147.578 -37.1128 173.232
LeftHand  -4.32999 -9.48952 33.963
RightShoulder  0.90927 0.394452 10.87
RightArm  -23.9792 -61.8521 -34.1968
RightForeArm  177.798 43.4631 -161.358
RightHand  -4.28823 7.77161 -36.381
LeftUpLeg  4.48601 19.5944 8.51734
LeftLeg  14.9025 36.3898 11.3169
LeftFoot  7.54544 3.92809 -21.2109
LeftToes  7.37594e-011 2.64622e-011 -6.25182e-011
562
root  -7.66529 39.689 -0.0337131 14.9798 -58.592 -7.54166
RightUpLeg  -10.762 5.89725 11.2646
RightLeg  6.19545 30.9196 5.35904
RightFoot  -3.27542 0.113438 -1.2
RightToes  1.74624e-010 -3.18055e-015 -2.98177e-016
Spine  -10.902 -5.70346 -5.56843
Spine1  -11.2676 -5.85157 15.8821
HEad  46.9556 13.1056 0.573221
LeftShoulder1  -3.88251e-019 9.70628e-020 -3.87848e-018
LeftArm  -17.1199 62.2818 41.2466
LeftForeArm  147.561 -37.0106 173.261
LeftHand  -4.20106 -9.11474 33.836
RightShoulder  0.860883 0.245535 10.6516
RightArm  -23.7129 -61.8537 -33.9268
RightForeArm  178.517 43.641 -161.189
RightHand  -4.52474 8.40635 -36.6112
LeftUpLeg  4.38975 19.3601 8.54673
LeftLeg  14.7467 36.5967 11.0639
LeftFoot  7.53738 3.91087 -21.1279
LeftToes  7.37594e-011 2.64622e-011 -6.25182e-011
563
root  -7.67884 39.691 -0.0683274 15.052 -58.415 -7.51739
RightUpLeg  -10.8004 5.93937 11.3037
RightLeg  6.01125 30.709 5.33404
RightFoot  -3.215 0.113266 -1.20429
RightToes  1.74624e-010 -3.18055e-015 -2.98177e-016
Spine  -10.8702 -5.72809 -6.06611
Spine1  -11.1397 -5.89329 16.4721
HEad  46.4645 13.3143 0.439999
LeftShoulder1  -3.88251e-019 9.70628e-020 -3.87848e-018
LeftArm  -17.3598 62.5591 40.1344
LeftForeArm  148.654 -37.4513 173.105
LeftHand  -4.11064 -9.08339 33.226
RightShoulder  0.88857 0.364563 10.692
RightArm  -24.03 -61.5515 -33.1637
RightForeArm  179.424 43.8142 -161.014
RightHand  -4.77353 8.89975 -37.2565
LeftUpLeg  4.29694 19.0406 8.59138
LeftLeg  14.6314 36.8143 10.8875
LeftFoot  7.55599 3.88479 -20.9702
LeftToes  7.37594e-011 2.64622e-011 -6.25182e-011
564
root  -7.68395 39.6943 -0.107314 15.019 -58.1509 -7.47913
RightUpLeg  -10.7365 5.91655 11.3303
RightLeg  5.79622 30.4626 5.35376
RightFoot  -3.11239 0.121138 -1.29326
RightToes  1.74624e-010 -3.18055e-015 -2.98177e-016
Spine  -10.9464 -5.78525 -6.00302
Spine1  -10.6296 -6.01597 16.2171
HEad  45.1794 13.5837 0.642921
LeftShoulder1  -3.88251e-019 9.70628e-020 -3.87848e-018
LeftArm  -17.2015 62.5297 38.7002
LeftForeArm  150.832 -38.7921 172.655
LeftHand  -4.13295 -9.51205 32.4639
RightShoulder  0.994988 0.734393 11.0496
RightArm  -24.7397 -61.1227 -32.0115
RightForeArm  179.944 43.9321 -160.898
RightHand  -4.78695 8.8704 -37.4218
LeftUpLeg  4.22815 18.5291 8.63411
LeftLeg  14.5526 37.1149 10.7853
LeftFoot  7.5809 3.86563 -20.843
LeftToes  7.37594e-011 2.64622e-011 -6.25182e-011
565
root  -7.67733 39.6973 -0.159112 14.9635 -57.9155 -7.46023
RightUpLeg  -10.6809 5.87063 11.3535
RightLeg  5.64365 30.256 5.42382
RightFoot  -3.01 0.125195 -1.34556
RightToes  1.74624e-010 -3.18055e-015 -2.98177e-016
Spine  -11.0766 -5.71117 -5.12638
Spine1  -9.94224 -6.01392 14.6916
HEad  43.1188 13.9381 0.992575
LeftShoulder1  -3.88251e-019 9.70628e-020 -3.87848e-018
LeftArm  -18.2003 61.7794 35.3702
LeftForeArm  153.104 -40.8934 171.95
LeftHand  -4.14024 -9.78792 31.9433
RightShoulder  1.21943 1.37993 12.0351
RightArm  -26.1205 -60.3993 -30.1299
RightForeArm  179.761 44.2488 -160.661
RightHand  -4.71054 8.82494 -36.9784
LeftUpLeg  4.10866 18.244 8.69691
LeftLeg  14.5754 37.1851 10.8142
LeftFoot  7.59709 3.85079 -20.7478
LeftToes  7.37594e-011 2.64622e-011 -6.25182e-011
566
root  -7.64955 39.6959 -0.234544 14.8214 -57.7529 -7.4472
RightUpLeg  -10.6521 5.87035 11.4099
RightLeg  5.65149 30.0268 5.46858
RightFoot  -2.99559 0.120166 -1.30741
RightToes  1.74624e-010 -3.18055e-015 -2.98177e-016
Spine  -10.8645 -5.41049 -4.15517
Spine1  -9.44007 -5.75653 13.0008
HEad  40.4386 14.5486 1.13613
LeftShoulder1  -3.88251e-019 9.70628e-020 -3.87848e-018
LeftArm  -20.0944 60.4364 29.7355
LeftForeArm  156.067 -44.057 170.821
LeftHand  -4.09861 -9.64395 31.936
RightShoulder  1.55446 2.20849 13.6082
RightArm  -28.2896 -59.205 -26.9121
RightForeArm  -179.114 45.304 -159.765
RightHand  -4.83731 9.15162 -37.1079
LeftUpLeg  3.92097 18.8297 8.85957
LeftLeg  14.8152 36.4982 11.1094
LeftFoot  7.59762 3.82566 -20.614
LeftToes  7.37594e-011 2.64622e-011 -6.25182e-011
567
root  -7.59377 39.6858 -0.330231 14.4106 -57.5426 -7.35712
RightUpLeg  -10.5682 5.91717 11.5042
RightLeg  5.85761 29.6306 5.42015
RightFoot  -3.08396 0.122992 -1.35442
RightToes  1.74624e-010 -3.18055e-015 -2.98177e-016
Spine  -10.1642 -4.96984 -3.73014
Spine1  -9.01496 -5.36357 12.1692
HEad  37.0665 15.1332 1.26273
LeftShoulder1  -3.88251e-019 9.70628e-020 -3.87848e-018
LeftArm  -21.0039 59.1391 22.8286
LeftForeArm  161.105 -49.2408 168.696
LeftHand  -4.21575 -9.81936 32.4228
RightShoulder  1.95444 3.08719 15.4405
RightArm  -30.2514 -57.6964 -22.4437
RightForeArm  -174.377 47.5543 -157.6
RightHand  -5.11357 9.41681 -38.4297
LeftUpLeg  3.72438 20.2975 9.12264
LeftLeg  15.2634 34.8038 11.7075
LeftFoot  7.53585 3.79344 -20.5052
LeftToes  7.37594e-011 2.64622e-011 -6.25182e-011
568
root  -7.51397 39.6697 -0.429689 13.6802 -57.0969 -7.1054
RightUpLeg  -10.4108 5.93322 11.5702
RightLeg  6.1966 28.9836 5.30195
RightFoot  -3.22515 0.14134 -1.5733
RightToes  1.74624e-010 -3.18055e-015 -2.98177e-016
Spine  -9.30473 -4.59754 -3.68702
Spine1  -8.24842 -5.07652 11.9192
HEad  33.1411 15.6102 1.2229
LeftShoulder1  -3.88251e-019 9.70628e-020 -3.87848e-018
LeftArm  -20.6741 58.4199 15.4555
LeftForeArm  167.985 -56.9481 164.611
LeftHand  -4.48423 -10.7233 32.5096
RightShoulder  2.47166 4.12483 17.6346
RightArm  -30.8676 -55.7892 -17.8227
RightForeArm  -166.885 51.3098 -153.49
RightHand  -5.22387 9.16068 -39.8274
LeftUpLeg  3.49007 21.8711 9.34772
LeftLeg  15.8221 32.4863 12.4992
LeftFoot  7.37842 3.76993 -20.5392
LeftToes  7.37594e-011 2.64622e-011 -6.25182e-011
569
root  -7.41577 39.6535 -0.524906 12.7879 -56.3382 -6.738
RightUpLeg  -10.254 5.85557 11.559
RightLeg  6.59194 28.1097 5.19612
RightFoot  -3.4174 0.153566 -1.71879
RightToes  1.74624e-010 -3.18055e-015 -2.98177e-016
Spine  -8.56012 -4.38863 -3.7563
Spine1  -7.03294 -4.98934 11.8129
HEad  28.6414 16.0094 0.946186
LeftShoulder1  -3.88251e-019 9.70628e-020 -3.87848e-018
LeftArm  -21.0678 58.1093 7.16772
LeftForeArm  178.282 -66.8186 156.019
LeftHand  -4.44983 -11.494 30.826
RightShoulder  3.20272 5.44415 20.4976
RightArm  -30.1901 -52.7731 -14.3953
RightForeArm  -157.999 56.8194 -145.952
RightHand  -5.13652 8.81998 -40.0697
LeftUpLeg  3.08598 23.0057 9.46584
LeftLeg  16.5294 30.1663 13.4109
LeftFoot  7.16364 3.7496 -20.6498
LeftToes  7.37594e-011 2.64622e-011 -6.25182e-011
570
root  -7.29834 39.631 -0.624074 11.8995 -55.2935 -6.42172
RightUpLeg  -10.1445 5.71668 11.5392
RightLeg  7.08203 27.0244 5.12833
RightFoot  -3.71548 0.139492 -1.59493
RightToes  1.74624e-010 -3.18055e-015 -2.98177e-016
Spine  -7.86866 -4.19771 -3.96733
Spine1  -5.58622 -4.96681 12.0717
HEad  23.6013 16.3972 0.254358
LeftShoulder1  -3.88251e-019 9.70628e-020 -3.87848e-018
LeftArm  -23.8653 57.3335 -2.92581
LeftForeArm  -152.518 -77.3154 129.334
LeftHand  -3.89723 -11.291 27.4978
RightShoulder  4.01976 6.74047 23.5005
RightArm  -29.0377 -48.5936 -12.3456
RightForeArm  -143.743 63.4551 -131.521
RightHand  -4.95482 8.61017 -39.2941
LeftUpLeg  2.45017 23.7016 9.63334
LeftLeg  17.6011 28.1947 14.4466
LeftFoot  6.89958 3.70592 -20.6861
LeftToes  7.37594e-011 2.64622e-011 -6.25182e-011
571
root  -7.16593 39.5893 -0.73163 11.0333 -53.9586 -6.24277
RightUpLeg  -10.0555 5.59835 11.6121
RightLeg  7.7163 25.6549 5.01651
RightFoot  -4.11508 0.120815 -1.43514
RightToes  1.74624e-010 -3.18055e-015 -2.98177e-016
Spine  -7.16269 -3.8906 -4.00451
Spine1  -4.05889 -4.86411 12.4626
HEad  18.4197 16.8054 -0.72257
LeftShoulder1  -3.88251e-019 9.70628e-020 -3.87848e-018
LeftArm  -28.0133 55.054 -13.939
LeftForeArm  -70.8572 -77.3169 51.5098
LeftHand  -3.2386 -10.2121 24.6356
RightShoulder  4.59223 7.5698 25.4625
RightArm  -27.6431 -44.7269 -10.5689
RightForeArm  -116.598 68.3104 -105.218
RightHand  -4.51968 7.80581 -38.1072
LeftUpLeg  1.63642 23.5741 10.0005
LeftLeg  19.2395 26.8278 15.5235
LeftFoot  6.50744 3.62441 -20.6486
LeftToes  7.37594e-011 2.64622e-011 -6.25182e-011
